<mxfile host="app.diagrams.net" modified="2021-03-05T23:52:55.077Z" agent="5.0 (Windows NT 10.0; Win64; x64) AppleWebKit/537.36 (KHTML, like Gecko) Chrome/88.0.4324.190 Safari/537.36" etag="Qzj3z9mLhyLEkukA98uf" version="14.4.4" type="github">
  <diagram id="TJGhknhbs0AYj4AIgJoZ" name="Page-1">
    <mxGraphModel dx="868" dy="482" grid="1" gridSize="10" guides="1" tooltips="1" connect="1" arrows="1" fold="1" page="1" pageScale="1" pageWidth="827" pageHeight="1169" math="0" shadow="0">
      <root>
        <mxCell id="0" />
        <mxCell id="1" parent="0" />
        <mxCell id="yIaqHCxYKoE83otXD2FC-1" value="SabanaResearch" style="html=1;" vertex="1" parent="1">
          <mxGeometry x="160" y="10" width="110" height="50" as="geometry" />
        </mxCell>
        <mxCell id="yIaqHCxYKoE83otXD2FC-2" value="" style="shape=umlLifeline;participant=umlActor;perimeter=lifelinePerimeter;whiteSpace=wrap;html=1;container=1;collapsible=0;recursiveResize=0;verticalAlign=top;spacingTop=36;outlineConnect=0;" vertex="1" parent="1">
          <mxGeometry x="60" y="60" width="20" height="300" as="geometry" />
        </mxCell>
        <mxCell id="yIaqHCxYKoE83otXD2FC-4" value="" style="html=1;points=[];perimeter=orthogonalPerimeter;" vertex="1" parent="1">
          <mxGeometry x="260" y="70" width="10" height="220" as="geometry" />
        </mxCell>
        <mxCell id="yIaqHCxYKoE83otXD2FC-6" value="loop(s:students)" style="shape=umlFrame;whiteSpace=wrap;html=1;width=100;height=30;" vertex="1" parent="1">
          <mxGeometry x="270" y="90" width="370" height="200" as="geometry" />
        </mxCell>
        <mxCell id="yIaqHCxYKoE83otXD2FC-9" value="stu=verif(id student)" style="html=1;verticalAlign=bottom;endArrow=block;" edge="1" parent="1">
          <mxGeometry x="0.2" y="10" width="80" relative="1" as="geometry">
            <mxPoint x="270" y="160" as="sourcePoint" />
            <mxPoint x="370" y="160" as="targetPoint" />
            <Array as="points">
              <mxPoint x="370" y="160" />
            </Array>
            <mxPoint as="offset" />
          </mxGeometry>
        </mxCell>
        <mxCell id="yIaqHCxYKoE83otXD2FC-3" value="&amp;lt;&amp;lt;constructor&amp;gt;&amp;gt;&lt;br&gt;Ecigrupos(id, code)" style="html=1;verticalAlign=bottom;startArrow=oval;startFill=1;endArrow=block;startSize=8;entryX=0.1;entryY=0.132;entryDx=0;entryDy=0;entryPerimeter=0;" edge="1" parent="1" source="yIaqHCxYKoE83otXD2FC-2" target="yIaqHCxYKoE83otXD2FC-4">
          <mxGeometry width="60" relative="1" as="geometry">
            <mxPoint x="70" y="90" as="sourcePoint" />
            <mxPoint x="200" y="100" as="targetPoint" />
          </mxGeometry>
        </mxCell>
        <mxCell id="yIaqHCxYKoE83otXD2FC-10" value="" style="html=1;points=[];perimeter=orthogonalPerimeter;" vertex="1" parent="1">
          <mxGeometry x="370" y="150" width="10" height="140" as="geometry" />
        </mxCell>
        <mxCell id="yIaqHCxYKoE83otXD2FC-11" value="Loop(g:groups)" style="shape=umlFrame;whiteSpace=wrap;html=1;width=90;height=30;" vertex="1" parent="1">
          <mxGeometry x="420" y="120" width="220" height="200" as="geometry" />
        </mxCell>
        <mxCell id="yIaqHCxYKoE83otXD2FC-13" value="Students" style="html=1;" vertex="1" parent="1">
          <mxGeometry x="320" y="10" width="110" height="50" as="geometry" />
        </mxCell>
        <mxCell id="yIaqHCxYKoE83otXD2FC-16" value="group=verif(id group)" style="html=1;verticalAlign=bottom;endArrow=block;entryX=0.2;entryY=1;entryDx=0;entryDy=0;entryPerimeter=0;" edge="1" parent="1" target="yIaqHCxYKoE83otXD2FC-18">
          <mxGeometry x="-0.5714" width="80" relative="1" as="geometry">
            <mxPoint x="420" y="200" as="sourcePoint" />
            <mxPoint x="500" y="200" as="targetPoint" />
            <Array as="points">
              <mxPoint x="500" y="200" />
              <mxPoint x="570" y="200" />
              <mxPoint x="600" y="200" />
            </Array>
            <mxPoint as="offset" />
          </mxGeometry>
        </mxCell>
        <mxCell id="yIaqHCxYKoE83otXD2FC-17" value="Groups" style="html=1;" vertex="1" parent="1">
          <mxGeometry x="530" y="10" width="110" height="50" as="geometry" />
        </mxCell>
        <mxCell id="yIaqHCxYKoE83otXD2FC-18" value="" style="html=1;points=[];perimeter=orthogonalPerimeter;" vertex="1" parent="1">
          <mxGeometry x="590" y="80" width="10" height="120" as="geometry" />
        </mxCell>
        <mxCell id="yIaqHCxYKoE83otXD2FC-19" value="Verifreq()" style="html=1;verticalAlign=bottom;endArrow=block;" edge="1" parent="1">
          <mxGeometry width="80" relative="1" as="geometry">
            <mxPoint x="640" y="240" as="sourcePoint" />
            <mxPoint x="720" y="240" as="targetPoint" />
          </mxGeometry>
        </mxCell>
        <mxCell id="yIaqHCxYKoE83otXD2FC-20" value="Project" style="html=1;" vertex="1" parent="1">
          <mxGeometry x="690" y="10" width="110" height="50" as="geometry" />
        </mxCell>
        <mxCell id="yIaqHCxYKoE83otXD2FC-21" value="" style="html=1;points=[];perimeter=orthogonalPerimeter;" vertex="1" parent="1">
          <mxGeometry x="720" y="80" width="10" height="160" as="geometry" />
        </mxCell>
      </root>
    </mxGraphModel>
  </diagram>
</mxfile>
